<?xml version="1.0" encoding="UTF-8"?>
<svg xmlns="http://www.w3.org/2000/svg" xmlns:xlink="http://www.w3.org/1999/xlink" viewBox="0 0 1000 1000">
  <defs>
    <style>
      .cls-1, .cls-2 {
        fill: #fff;
      }

      .cls-3, .cls-4, .cls-5 {
        fill: #559cff;
      }

      .cls-2 {
        opacity: .3;
      }

      .cls-6 {
        opacity: .2;
      }

      .cls-7 {
        fill: url(#Unbenannter_Verlauf_18);
      }

      .cls-8 {
        fill: #1f4b64;
      }

      .cls-9 {
        fill: url(#Unbenannter_Verlauf_14);
      }

      .cls-10 {
        stroke: #da1ed7;
        stroke-width: 15px;
      }

      .cls-10, .cls-4, .cls-5 {
        stroke-miterlimit: 10;
      }

      .cls-4 {
        stroke: #1d1d1b;
      }

      .cls-11 {
        fill: #0f1a20;
      }

      .cls-12 {
        fill: url(#Unbenannter_Verlauf_14-2);
      }

      .cls-5 {
        stroke: #000;
        stroke-width: 7px;
      }
    </style>
    <radialGradient id="Unbenannter_Verlauf_18" data-name="Unbenannter Verlauf 18" cx="499.97" cy="512.35" fx="632.56" fy="324.45" r="296.33" gradientUnits="userSpaceOnUse">
      <stop offset="0" stop-color="#2b4662"/>
      <stop offset=".48" stop-color="#000"/>
    </radialGradient>
    <linearGradient id="Unbenannter_Verlauf_14" data-name="Unbenannter Verlauf 14" x1="232.49" y1="387.88" x2="232.49" y2="564.88" gradientUnits="userSpaceOnUse">
      <stop offset=".05" stop-color="#da1ed7"/>
      <stop offset=".5" stop-color="#e383ed"/>
      <stop offset=".93" stop-color="#da1ed7"/>
    </linearGradient>
    <linearGradient id="Unbenannter_Verlauf_14-2" data-name="Unbenannter Verlauf 14" x1="604.15" y1="387.88" x2="604.15" y2="564.88" gradientTransform="translate(1372.34) rotate(-180) scale(1 -1)" xlink:href="#Unbenannter_Verlauf_14"/>
  </defs>
  <g id="Hintergrund">
    <rect id="Hintergrundfarbe" class="cls-11" width="1000" height="1000"/>
    <rect id="Balken01" class="cls-8" y="388.69" width="1000" height="228.77"/>
    <path id="Umriss" class="cls-8" d="m822.03,512.35c0,169.07-144.19,306.13-322.06,306.13s-322.06-137.06-322.06-306.13c0-95.1,45.62-180.08,117.2-236.23,55.67-43.67,127.04-69.91,204.86-69.91,177.87,0,322.06,137.06,322.06,306.13Z"/>
  </g>
  <g id="Astrobuddy">
    <rect id="AugenHintergrund" class="cls-1" x="299.84" y="352.1" width="402.97" height="305.42"/>
    <g id="Auge_L">
      <ellipse id="Pupille02" class="cls-10" cx="589.82" cy="504.28" rx="55.64" ry="87.58"/>
      <ellipse id="Sepcular01" class="cls-2" cx="618.55" cy="447.42" rx="9.88" ry="16.14" transform="translate(-144.64 429.23) rotate(-34.51)"/>
    </g>
    <g id="Auge_R">
      <ellipse id="Pupille01" class="cls-10" cx="409.34" cy="501.89" rx="55.64" ry="87.58"/>
      <ellipse id="Sepcular02" class="cls-2" cx="436.53" cy="446.36" rx="9.88" ry="16.14" transform="translate(-176.08 325.91) rotate(-34.51)"/>
    </g>
    <g id="Augenlied_L">
      <polygon id="Augenlied_L_unten" class="cls-4" points="683.38 504.81 496.25 504.81 496.25 643.61 603.97 643.61 683.38 601.64 683.38 504.81"/>
      <rect id="Augenlied_L_oben2" class="cls-4" x="496.25" y="434.87" width="187.13" height="69.4"/>
      <rect id="Augenlied_L_oben1" class="cls-3" x="496.25" y="367.78" width="187.13" height="69.4"/>
    </g>
    <g id="Augenlied_R">
      <polygon id="Augenlied_R_unten" class="cls-4" points="502.91 504.81 315.78 504.81 315.78 600.74 394.68 643.61 502.91 643.61 502.91 504.81"/>
      <polygon id="Augenlied_R_oben2" class="cls-4" points="502.91 434.87 409.34 434.87 315.78 434.87 315.78 504.28 502.91 504.28 502.91 434.87"/>
      <polygon id="Augenlied_R_oben1" class="cls-3" points="502.91 367.78 409.34 367.78 315.78 367.78 315.78 437.18 502.91 437.18 502.91 367.78"/>
    </g>
    <path id="Kopf" class="cls-7" d="m801.33,512.35c0,158.2-134.92,286.45-301.36,286.45s-301.36-128.25-301.36-286.45c0-88.99,42.69-168.5,109.67-221.04,52.09-40.86,118.88-65.41,191.69-65.41,162.37,0,294.74,122.06,301.12,274.9.02.58-84.64,3.24-122.65,4.55,1.92-62.29-30.98-130.76-84.32-130.76-50.01,0-90.84,55.69-90.84,137.76h-7.07c3.8-120.77-64.74-142.3-83.83-142.3-59.89,0-90.88,72.62-90.88,135.3s31.77,126.21,84.34,126.21c65.5,0,90.37-86.95,90.37-119.21,0,0,5.78,0,7.07,0,0,53.03,29.6,123.76,84.3,123.76,57.56,0,90.87-69.95,90.87-130.76,28.53-1.03,106.84-3.51,122.65-4.55-.15,4.55.24,11.42.24,11.55Z"/>
    <path id="Kiefer" class="cls-5" d="m335.84,281.13l-82.4,109.68-.44,185.8,71.8,56.3,19.58,27.82,71.1,27.82,38.12-23.7,66.98,1.03,36.06,26.79,75.22-22.67,20.61-29.88,94.8-61.82v-187.49l-96.99-116.01s141.3,74.07,141.3,237.56c0,142.09-120.56,277.18-305.34,277.18-156.62,0-281.23-143.63-277.86-277.18,4.02-159.57,127.47-231.23,127.47-231.23Z"/>
    <path id="Schatten" class="cls-6" d="m212.74,571.93c61.27,64.34,108.76,88.08,108.76,88.08l22.98,31.4,76.59,29.11,42.71-29.87,50.74.77,40.59,32.93,84.25-26.81,10.72-22.21s98.04-49.79,136.33-107.23c-62.04,294.88-504.74,284.16-573.68,3.83Z"/>
    <ellipse id="Sepcular03" class="cls-2" cx="634.41" cy="333.18" rx="8.65" ry="25.79" transform="translate(7.06 679.48) rotate(-56.61)"/>
    <path id="Ohren_2" class="cls-9" d="m245.84,385c1.95.09,7.16,0,7.16,0v169.68l-10.45,12.65h-15.87l-13.03-26.32s-12.71-78,32.19-156Z"/>
    <path id="Ohren_1" class="cls-12" d="m754.85,385c-1.95.09-7.16,0-7.16,0v169.68s10.45,12.65,10.45,12.65h15.87s13.03-26.32,13.03-26.32c0,0,12.71-78-32.19-156Z"/>
  </g>
</svg>